:FULLY-SPECIFIED
:DEGREES
34
root -2.81102 16.4543 -36.1774 3.54463 -0.0293656 -2.58303
lfemur -22.151 5.88249 -8.97307
ltibia 45.7691
lfoot -22.2511 0.998583
ltoes -9.43959
rfemur -22.6221 -6.23683 13.979
rtibia 48.0667
rfoot -26.1088 2.17309
rtoes -7.14253
lowerback 7.42602 2.05102 -1.8613
upperback -3.79646 2.64191 1.20223
thorax -8.32515 1.43118 1.93008
lowerneck -2.6908 -3.764 -6.56961
upperneck 5.95851 -5.08589 5.99513
head 2.77485 -2.5149 2.9682
lclavicle -3.12775e-15 1.48095e-14
lhumerus -26.6895 -2.35674 88.6226
lradius 24.7405
lwrist -30.8745
lhand -28.2802 30.3567
lfingers 7.12502
lthumb -1.65653 60.33
rclavicle -3.12775e-15 1.48095e-14
rhumerus -32.5767 2.25643 -80.3452
rradius 30.5027
rwrist 2.91734
rhand -20.357 -26.7141
rfingers 7.12502
rthumb 5.99512 -56.6093
35
root -2.81085 16.4535 -36.1777 3.53982 -0.0402567 -2.60267
lfemur -22.1644 5.87935 -8.95041
ltibia 45.8098
lfoot -22.2613 1.01913
ltoes -9.42757
rfemur -22.6282 -6.23815 13.9982
rtibia 48.0791
rfoot -26.115 2.18311
rtoes -7.1512
lowerback 7.43811 2.04505 -1.8234
upperback -3.78618 2.6377 1.20119
thorax -8.31886 1.42682 1.90811
lowerneck -2.69471 -3.75755 -6.56281
upperneck 5.91335 -5.07536 5.99018
head 2.75906 -2.50952 2.96545
lclavicle 7.92809e-15 -1.98785e-15
lhumerus -26.7529 -2.35441 88.5921
lradius 24.7837
lwrist -30.9245
lhand -28.2821 30.2983
lfingers 7.12502
lthumb -1.65835 60.2716
rclavicle 7.92809e-15 -1.98785e-15
rhumerus -32.5593 2.25279 -80.3454
rradius 30.5232
rwrist 2.90633
rhand -20.3797 -26.6642
rfingers 7.12502
rthumb 5.97326 -56.56
36
root -2.81059 16.4515 -36.1775 3.54218 -0.0415179 -2.62515
lfemur -22.185 5.86437 -8.92438
ltibia 45.8546
lfoot -22.2742 1.01847
ltoes -9.26755
rfemur -22.6372 -6.24447 14.02
rtibia 48.0938
rfoot -26.1174 2.19367
rtoes -7.15546
lowerback 7.44744 2.03486 -1.80267
upperback -3.78094 2.62736 1.21697
thorax -8.31788 1.42107 1.9145
lowerneck -2.73098 -3.75497 -6.56408
upperneck 5.9016 -5.0673 5.95933
head 2.76009 -2.5058 2.95485
lclavicle -2.50034e-15 -5.36719e-15
lhumerus -26.7678 -2.28508 88.5778
lradius 24.7769
lwrist -30.8974
lhand -28.261 30.3471
lfingers 7.12502
lthumb -1.63803 60.3206
rclavicle -2.50034e-15 -5.36719e-15
rhumerus -32.5538 2.25224 -80.3174
rradius 30.5504
rwrist 2.91337
rhand -20.4432 -26.6065
rfingers 7.12502
rthumb 5.91193 -56.504
37
root -2.81008 16.4499 -36.1778 3.5431 -0.0493206 -2.64207
lfemur -22.2017 5.85439 -8.90588
ltibia 45.8931
lfoot -22.2915 1.05149
ltoes -9.28945
rfemur -22.6536 -6.26094 14.0365
rtibia 48.1124
rfoot -26.1267 2.20369
rtoes -7.18769
lowerback 7.45885 2.02723 -1.76992
upperback -3.79385 2.62103 1.22215
thorax -8.33678 1.41658 1.90197
lowerneck -2.67526 -3.74239 -6.58305
upperneck 5.8851 -5.05202 5.95909
head 2.74369 -2.49947 2.95962
lclavicle 9.87556e-15 1.19271e-14
lhumerus -26.8334 -2.2221 88.5547
lradius 24.7642
lwrist -30.9532
lhand -28.3155 30.2961
lfingers 7.12502
lthumb -1.69066 60.2691
rclavicle 9.87556e-15 1.19271e-14
rhumerus -32.5988 2.26913 -80.307
rradius 30.5919
rwrist 2.88635
rhand -20.4419 -26.644
rfingers 7.12502
rthumb 5.91323 -56.5415
38
root -2.81059 16.4485 -36.1776 3.52813 -0.0641464 -2.66844
lfemur -22.1989 5.86877 -8.87255
ltibia 45.9389
lfoot -22.3213 1.07294
ltoes -9.29625
rfemur -22.6491 -6.2437 14.0669
rtibia 48.1337
rfoot -26.1456 2.17973
rtoes -7.22479
lowerback 7.47175 2.03924 -1.73869
upperback -3.76719 2.63991 1.21845
thorax -8.31467 1.42351 1.87772
lowerneck -2.74649 -3.76171 -6.57261
upperneck 5.87523 -5.07603 5.98896
head 2.75623 -2.50926 2.96608
lclavicle -1.41727e-14 -1.2424e-14
lhumerus -26.8116 -2.24734 88.5404
lradius 24.7448
lwrist -30.9327
lhand -28.2936 30.2085
lfingers 7.12502
lthumb -1.66951 60.1817
rclavicle -1.41727e-14 -1.2424e-14
rhumerus -32.5949 2.23351 -80.2848
rradius 30.6481
rwrist 2.87407
rhand -20.3698 -26.6689
rfingers 7.12502
rthumb 5.98276 -56.5645
39
root -2.81014 16.4467 -36.1779 3.53746 -0.0485851 -2.65053
lfemur -22.2354 5.8598 -8.89575
ltibia 45.9798
lfoot -22.3469 1.07366
ltoes -9.24128
rfemur -22.6697 -6.28334 14.0456
rtibia 48.158
rfoot -26.1602 2.19436
rtoes -7.19963
lowerback 7.47173 2.02978 -1.7415
upperback -3.76757 2.62624 1.2098
thorax -8.31404 1.4167 1.87218
lowerneck -2.75608 -3.76439 -6.56151
upperneck 5.87364 -5.07915 5.98237
head 2.75701 -2.51059 2.96145
lclavicle 3.91823e-14 -1.76918e-14
lhumerus -26.8377 -2.21435 88.522
lradius 24.7159
lwrist -30.9998
lhand -28.2824 30.114
lfingers 7.12502
lthumb -1.65861 60.0873
rclavicle 3.91823e-14 -1.76918e-14
rhumerus -32.6172 2.22885 -80.2698
rradius 30.6904
rwrist 2.88405
rhand -20.3944 -26.6283
rfingers 7.12502
rthumb 5.95907 -56.5245
